Coordinates
version=1
nRows=29
nColumns=18
inDegrees=yes

Units are S.I. units (second, meters, Newtons, ...)
Angles are in degrees.

endheader
time	ground_thorax_rot_x	ground_thorax_rot_y	ground_thorax_rot_z	ground_thorax_tx	ground_thorax_ty	ground_thorax_tz	clav_prot	clav_elev	scapula_abduction	scapula_elevation	scapula_upward_rot	scapula_winging	plane_elv	shoulder_elv	axial_rot	elbow_flexion	pro_sup
      3.46000000	      1.56639047	     -6.61692685	    -10.05621180	     -0.00423131	      0.00403036	     -0.00078352	    -19.55399939	     -4.78537085	     -7.48251182	     -4.06311464	     12.37173052	      5.43999064	    -17.78559855	     15.97184967	     38.80129348	      0.00000000	     34.32000000
      3.47000000	      1.59841215	     -6.54856852	    -10.04532403	     -0.00423131	      0.00403036	     -0.00078352	    -19.54421453	     -4.79051368	     -7.47316415	     -4.06223086	     12.35575250	      5.44437951	    -17.79680857	     16.00771154	     38.82907911	      0.00000000	     34.32000000
      3.48000000	      1.53355646	     -6.52283965	     -9.93156159	     -0.00423131	      0.00403036	     -0.00078352	    -19.48005466	     -4.78630844	     -7.24332455	     -4.11038834	     12.56279825	      5.38205786	    -20.54769955	     14.97949753	     50.19520291	      0.00000000	     34.32000000
      3.49000000	      1.48229012	     -6.54875404	     -9.90152542	     -0.00423131	      0.00403036	     -0.00078352	    -19.46874830	     -4.81290833	     -7.31134477	     -4.08697082	     12.39929643	      5.43004125	    -19.67665733	     15.36312819	     46.69142552	      0.00000000	     34.32000000
      3.50000000	      1.44489378	     -6.56241029	     -9.91492109	     -0.00423131	      0.00403036	     -0.00078352	    -19.46800077	     -4.79794530	     -7.31157617	     -4.07614402	     12.40236410	      5.42454872	    -19.65415503	     15.31524045	     46.70019911	      0.00000000	     34.32000000
      3.51000000	      1.45693301	     -6.66780059	     -9.99068809	     -0.00423131	      0.00403036	     -0.00078352	    -19.41168938	     -4.78255711	     -7.16836743	     -4.08386984	     12.48733975	      5.39049709	    -19.36024198	     15.24293870	     45.63420891	      0.00000000	     34.32000000
      3.52000000	      1.47313494	     -6.67028028	     -9.98541511	     -0.00423131	      0.00403036	     -0.00078352	    -19.41364892	     -4.75347977	     -7.19316610	     -4.05470994	     12.46151618	      5.38793835	    -19.34221660	     15.20816078	     45.64944162	      0.00000000	     34.32000000
      3.53000000	      1.54190578	     -6.54492909	     -9.88034520	     -0.00423131	      0.00403036	     -0.00078352	    -19.56382720	     -4.61844978	     -7.41450211	     -3.99300687	     12.58893967	      5.33390053	    -20.31654349	     14.67171055	     51.19091683	      0.00000000	     34.32000000
      3.54000000	      1.57176218	     -6.55863263	     -9.90215334	     -0.00423131	      0.00403036	     -0.00078352	    -19.56308247	     -4.66167606	     -7.38532325	     -4.03423025	     12.61946255	      5.33969481	    -20.22935680	     14.84661262	     50.13737577	      0.00000000	     34.32000000
      3.55000000	      1.37534002	     -6.50921426	    -10.00877051	     -0.00423131	      0.00403036	     -0.00078352	    -19.55491753	     -5.03361686	     -7.51181290	     -4.21397695	     12.22125757	      5.55779307	    -19.19970393	     15.50179358	     45.57943726	      0.00000000	     34.32000000
      3.56000000	      1.44823114	     -6.58581461	     -9.87083646	     -0.00423131	      0.00403036	     -0.00078352	    -19.41187478	     -4.94238899	     -7.33907781	     -4.10993949	     12.12340486	      5.53289894	    -19.13754949	     15.85744268	     44.36163749	      0.00000000	     34.32000000
      3.57000000	      1.32940149	     -6.66718638	     -9.86054871	     -0.00423131	      0.00403036	     -0.00078352	    -19.29545419	     -4.97623416	     -7.11694601	     -4.13469537	     12.14242595	      5.52246468	    -19.42062533	     15.76343046	     43.99458982	      0.00000000	     34.32000000
      3.58000000	      1.38595378	     -6.65154326	     -9.82378531	     -0.00423131	      0.00403036	     -0.00078352	    -19.29222928	     -4.81276598	     -7.12534558	     -4.02012317	     12.18474379	      5.45908708	    -19.06837405	     15.73423045	     42.96144821	      0.00000000	     34.32000000
      3.59000000	      1.33642218	     -6.67333433	     -9.87007237	     -0.00423131	      0.00403036	     -0.00078352	    -19.30374439	     -4.78705722	     -7.14129597	     -4.00562082	     12.20234779	      5.44808657	    -19.05674366	     15.69735045	     42.97375465	      0.00000000	     34.32000000
      3.60000000	      1.47105758	     -6.55442474	     -9.88906001	     -0.00423131	      0.00403036	     -0.00078352	    -19.54029497	     -4.54675849	     -7.34736306	     -3.95653263	     12.66386501	      5.28930203	    -20.15715314	     14.85342973	     48.32924425	      0.00000000	     34.32000000
      3.61000000	      1.39598226	     -6.55413326	    -10.04459821	     -0.00423131	      0.00403036	     -0.00078352	    -19.63135796	     -4.79472585	     -7.55814488	     -4.10097563	     12.47149633	      5.42846030	    -18.84673597	     15.47386877	     42.91393711	      0.00000000	     34.32000000
      3.62000000	      1.36165865	     -6.56264854	     -9.96909220	     -0.00423131	      0.00403036	     -0.00078352	    -19.63905429	     -4.82300892	     -7.68957200	     -4.06541718	     12.25384796	      5.49305443	    -18.40079675	     15.77249210	     41.70765370	      0.00000000	     34.32000000
      3.63000000	      1.51650026	     -6.63713749	     -9.95452981	     -0.00423131	      0.00403036	     -0.00078352	    -19.65950119	     -4.53060903	     -7.49102881	     -3.98222137	     12.78303275	      5.27015694	    -20.22458540	     14.69168620	     50.60836453	      0.00000000	     34.32000000
      3.64000000	      1.47089993	     -6.58926042	     -9.90876237	     -0.00423131	      0.00403036	     -0.00078352	    -19.66863971	     -4.52548055	     -7.57545531	     -3.94778449	     12.66601807	      5.29917545	    -19.82916276	     14.99207750	     48.15090837	      0.00000000	     34.32000000
      3.65000000	      1.34332182	     -6.61492891	     -9.95544076	     -0.00423131	      0.00403036	     -0.00078352	    -19.59575838	     -4.69104053	     -7.49188961	     -4.03257323	     12.52131879	      5.37813754	    -19.57569116	     15.31339502	     45.26591765	      0.00000000	     34.32000000
      3.66000000	      1.39903443	     -6.61447833	     -9.98488176	     -0.00423131	      0.00403036	     -0.00078352	    -19.57557914	     -4.61914270	     -7.42009100	     -4.00103098	     12.61474082	      5.32924389	    -19.69245029	     15.34098699	     44.77040840	      0.00000000	     34.32000000
      3.67000000	      1.42007890	     -6.65184596	     -9.89565463	     -0.00423131	      0.00403036	     -0.00078352	    -19.49096575	     -4.54098644	     -7.43628165	     -3.86925495	     12.36148503	      5.35766244	    -18.51139458	     15.81003461	     41.91013166	      0.00000000	     34.32000000
      3.68000000	      1.43233610	     -6.61929177	     -9.97323999	     -0.00423131	      0.00403036	     -0.00078352	    -19.49606082	     -4.53286173	     -7.43786050	     -3.86734583	     12.37720958	      5.35140302	    -18.52693600	     15.76543934	     41.94062967	      0.00000000	     34.32000000
      3.69000000	      1.51495306	     -6.64767018	     -9.98648793	     -0.00423131	      0.00403036	     -0.00078352	    -19.41852442	     -4.51196481	     -7.20504601	     -3.89447074	     12.55556520	      5.28914383	    -18.58538555	     16.43616452	     33.61688450	      0.00000000	     34.32000000
      3.70000000	      1.49889233	     -6.80104514	     -9.95878097	     -0.00423131	      0.00403036	     -0.00078352	    -19.32360970	     -4.43439549	     -6.93202135	     -3.88776776	     12.77406902	      5.19637391	    -19.97641114	     15.63545527	     42.01204156	      0.00000000	     34.32000000
      3.71000000	      1.52330590	     -6.81518570	     -9.95905870	     -0.00423131	      0.00403036	     -0.00078352	    -19.32291209	     -4.44596882	     -6.93273702	     -3.89424779	     12.76549960	      5.20202754	    -19.96071072	     15.62500819	     42.03170071	      0.00000000	     34.32000000
      3.72000000	      1.36529446	     -6.76868445	    -10.01449961	     -0.00423131	      0.00403036	     -0.00078352	    -19.40245284	     -4.66243045	     -7.16824954	     -3.99661130	     12.50838568	      5.34580608	    -19.38028209	     15.76680487	     41.15551242	      0.00000000	     34.32000000
      3.73000000	      1.37492936	     -6.71885535	    -10.01632566	     -0.00423131	      0.00403036	     -0.00078352	    -19.50262930	     -4.65135564	     -7.36939795	     -3.98275581	     12.46759217	      5.36651493	    -19.04533479	     15.81340150	     40.59916392	      0.00000000	     34.32000000
      3.74000000	      1.48866143	     -6.81822274	     -9.92213883	     -0.00423131	      0.00403036	     -0.00078352	    -19.38082330	     -4.46031662	     -7.22442613	     -3.81893986	     12.42831917	      5.30007312	    -18.43814760	     16.00151452	     39.52195214	      0.00000000	     34.32000000
